<svg width="117" height="47" viewBox="0 0 117 47" fill="none" xmlns="http://www.w3.org/2000/svg">
<path d="M31.0183 6.5174C31.0183 5.75431 31.2111 5.16252 31.5966 4.74205C32.2597 4.05683 32.9922 3.71421 33.794 3.71421C34.5651 3.71421 35.1356 3.90888 35.5057 4.29821C36.1688 4.99901 36.5003 5.73873 36.5003 6.5174L36.4772 29.5268C36.4772 31.5981 35.7602 33.2644 34.326 34.5258C32.9382 35.7561 31.1494 36.3713 28.9597 36.3713C26.5078 36.3713 24.6343 35.5926 23.3389 34.0353C23.1693 33.8484 22.992 33.755 22.8069 33.755C22.6219 33.755 22.4445 33.8484 22.2749 34.0353C20.9796 35.5926 19.0983 36.3713 16.631 36.3713C14.4413 36.3713 12.6602 35.7561 11.2878 34.5258C9.83828 33.2333 9.11352 31.5436 9.11352 29.4568V8.38618H8.1189C7.37871 8.38618 6.81586 8.58863 6.43035 8.99354C5.79811 9.67876 5.48199 10.4029 5.48199 11.166V12.4975C5.48199 13.7122 4.91914 14.5532 3.79344 15.0204C3.45419 15.1605 3.09181 15.2306 2.7063 15.2306C2.33621 15.2306 1.98153 15.1605 1.64228 15.0204C1.31845 14.8802 1.03317 14.6856 0.786446 14.4364C0.262149 13.9069 0 13.2606 0 12.4975V11.0959C0 9.18042 0.678502 7.55301 2.03551 6.21372C3.39251 4.85885 4.99624 4.18141 6.8467 4.18141H11.8892C12.6602 4.18141 13.2308 4.37608 13.6009 4.76541C14.264 5.4662 14.5955 6.20593 14.5955 6.98459V29.667C14.5955 30.4612 14.8499 31.0764 15.3588 31.5124C15.8831 31.9329 16.5231 32.1431 17.2787 32.1431C18.0497 32.1431 18.7051 31.9407 19.2448 31.5358C19.7845 31.1153 20.0544 30.4924 20.0544 29.667V6.5174C20.0544 5.75431 20.2471 5.16252 20.6326 4.74205C21.2957 4.05683 22.0282 3.71421 22.8301 3.71421C23.6011 3.71421 24.1716 3.90888 24.5417 4.29821C25.2048 4.99901 25.5364 5.73873 25.5364 6.5174V29.667C25.5364 30.4924 25.7985 31.1153 26.3228 31.5358C26.8471 31.9407 27.4948 32.1431 28.2658 32.1431C29.0368 32.1431 29.6845 31.9329 30.2088 31.5124C30.7331 31.0764 30.9952 30.4612 30.9952 29.667L31.0183 6.5174Z" fill="#1A1A1A"/>
<path d="M41.2755 13.3618C41.2755 12.5987 41.4682 12.007 41.8537 11.5865C42.5168 10.9013 43.2493 10.5586 44.0511 10.5586C44.8222 10.5586 45.3927 10.7611 45.7628 11.166C46.4413 11.8668 46.7806 12.5987 46.7806 13.3618V33.6615C46.7806 34.409 46.5878 34.9775 46.2023 35.3668C45.5238 36.052 44.8993 36.3946 44.3287 36.3946C43.7582 36.3946 43.3032 36.3168 42.964 36.161C42.6247 36.0209 42.3318 35.834 42.085 35.6004C41.5453 35.0709 41.2755 34.4246 41.2755 33.6615V13.3618ZM44.0511 0C44.8993 0 45.6317 0.311465 46.2486 0.934394C46.8654 1.55732 47.1738 2.18804 47.1738 2.82654C47.1738 3.46504 47.089 3.97117 46.9194 4.34493C46.7497 4.71869 46.5261 5.04573 46.2486 5.32604C45.6317 5.94897 44.8993 6.26044 44.0511 6.26044C43.203 6.26044 42.4705 5.94897 41.8537 5.32604C41.2369 4.70311 40.9285 4.08019 40.9285 3.45726C40.9285 2.39828 41.2369 1.55732 41.8537 0.934394C42.4705 0.311465 43.203 0 44.0511 0Z" fill="#1A1A1A"/>
<path d="M67.4465 40.0855C67.4465 42.001 66.7757 43.6284 65.4341 44.9677C64.0617 46.3226 62.4426 47 60.5767 47H56.4825C55.8966 47 55.3954 46.7975 54.979 46.3926C54.5781 45.9877 54.3776 45.4894 54.3776 44.8976C54.3776 44.3058 54.5781 43.7997 54.979 43.3792C55.3954 42.9743 55.8966 42.7719 56.4825 42.7719H59.212C59.983 42.7719 60.5613 42.5772 60.9468 42.1879C61.6099 41.5182 61.9414 40.8019 61.9414 40.0388V34.9697C61.9414 34.6738 61.8566 34.4791 61.687 34.3857C61.5328 34.2767 61.3785 34.2222 61.2243 34.2222C61.0701 34.2222 60.9314 34.2922 60.808 34.4324L60.4148 34.8062C59.3662 35.8651 58.1634 36.3946 56.8064 36.3946C55.1564 36.3946 53.7762 35.7094 52.666 34.339C51.5557 32.9997 51.0005 31.3801 51.0005 29.4801V17.9404C51.0005 16.0404 51.6713 14.413 53.0129 13.0582C54.3545 11.7033 55.9659 11.0258 57.8473 11.0258H64.6708C65.889 11.0258 66.7449 11.5943 67.2383 12.7311C67.3771 13.0737 67.4465 13.4397 67.4465 13.829V40.0855ZM56.4825 29.41C56.4825 30.1887 56.6753 30.7727 57.0608 31.162C57.7393 31.8472 58.3561 32.1899 58.9113 32.1899C59.4818 32.1899 59.929 32.1354 60.2528 32.0263C60.5767 31.9018 60.8697 31.7304 61.1318 31.5124C61.6715 31.0452 61.9414 30.4379 61.9414 29.6904V15.2306H59.212C58.4564 15.2306 57.8781 15.4331 57.4772 15.838C56.8141 16.5076 56.4825 17.2318 56.4825 18.0104V29.41Z" fill="#1A1A1A"/>
<path d="M86.6321 40.0855C86.6321 42.001 85.9613 43.6284 84.6197 44.9677C83.2473 46.3226 81.6281 47 79.7623 47H75.6681C75.0821 47 74.581 46.7975 74.1646 46.3926C73.7637 45.9877 73.5632 45.4894 73.5632 44.8976C73.5632 44.3058 73.7637 43.7997 74.1646 43.3792C74.581 42.9743 75.0821 42.7719 75.6681 42.7719H78.3975C79.1686 42.7719 79.7468 42.5772 80.1323 42.1879C80.7954 41.5182 81.127 40.8019 81.127 40.0388V34.9697C81.127 34.6738 81.0422 34.4791 80.8725 34.3857C80.7183 34.2767 80.5641 34.2222 80.4099 34.2222C80.2557 34.2222 80.1169 34.2922 79.9936 34.4324L79.6003 34.8062C78.5517 35.8651 77.3489 36.3946 75.9919 36.3946C74.3419 36.3946 72.9618 35.7094 71.8515 34.339C70.7413 32.9997 70.1861 31.3801 70.1861 29.4801V17.9404C70.1861 16.0404 70.8569 14.413 72.1985 13.0582C73.5401 11.7033 75.1515 11.0258 77.0328 11.0258H83.8564C85.0746 11.0258 85.9305 11.5943 86.4239 12.7311C86.5627 13.0737 86.6321 13.4397 86.6321 13.829V40.0855ZM75.6681 29.41C75.6681 30.1887 75.8609 30.7727 76.2464 31.162C76.9249 31.8472 77.5417 32.1899 78.0968 32.1899C78.6674 32.1899 79.1146 32.1354 79.4384 32.0263C79.7623 31.9018 80.0552 31.7304 80.3174 31.5124C80.8571 31.0452 81.127 30.4379 81.127 29.6904V15.2306H78.3975C77.6419 15.2306 77.0637 15.4331 76.6627 15.838C75.9996 16.5076 75.6681 17.2318 75.6681 18.0104V29.41Z" fill="#1A1A1A"/>
<path d="M95.8714 28.9662C95.8714 29.7604 96.0642 30.3444 96.4497 30.7182C97.1282 31.3723 97.8453 31.6993 98.6009 31.6993H98.8322C99.4027 31.6993 99.8422 31.855 100.151 32.1665C100.675 32.696 100.937 33.1788 100.937 33.6148C100.937 34.0509 100.883 34.4013 100.775 34.666C100.667 34.9152 100.521 35.1332 100.336 35.3201C99.9039 35.725 99.4027 35.9274 98.8322 35.9274H97.2362C95.3549 35.9274 93.7434 35.25 92.4018 33.8951C91.0602 32.5403 90.3895 30.9129 90.3895 29.0129V2.75646C90.3895 1.9778 90.5822 1.3938 90.9677 1.00447C91.6308 0.334824 92.3479 0 93.1189 0C93.9053 0 94.4913 0.194665 94.8768 0.583996C95.5399 1.25364 95.8714 1.9778 95.8714 2.75646V28.9662Z" fill="#1A1A1A"/>
<path d="M112.86 31.6993C113.446 31.6993 113.939 31.9095 114.34 32.33C114.741 32.7505 114.941 33.2566 114.941 33.8484C114.941 34.4246 114.741 34.9152 114.34 35.3201C113.939 35.725 113.446 35.9274 112.86 35.9274H107.401C105.519 35.9274 103.908 35.25 102.566 33.8951C101.225 32.5403 100.554 30.9129 100.554 29.0129V17.5432C100.554 15.4253 101.263 13.7356 102.682 12.4742C104.162 11.1971 106.198 10.5586 108.789 10.5586C111.348 10.5586 113.368 11.1971 114.849 12.4742C116.283 13.7512 117 15.4564 117 17.59V24.1307C117 24.9094 116.807 25.4934 116.422 25.8827C115.759 26.5524 115.034 26.8872 114.247 26.8872H106.036V28.9662C106.036 29.7604 106.229 30.3444 106.614 30.7182C107.293 31.3723 108.01 31.6993 108.765 31.6993H112.86ZM111.518 17.5432C111.518 16.7646 111.325 16.1806 110.94 15.7913C110.261 15.106 109.544 14.7634 108.789 14.7634C108.018 14.7634 107.432 14.9659 107.031 15.3708C106.368 16.0404 106.036 16.7646 106.036 17.5432V22.7992H111.518V17.5432Z" fill="#1A1A1A"/>
</svg>
